<mxfile host="app.diagrams.net" modified="2022-09-20T03:15:46.970Z" agent="5.0 (Macintosh; Intel Mac OS X 10_15_7) AppleWebKit/537.36 (KHTML, like Gecko) Chrome/105.0.0.0 Safari/537.36" etag="UoEgJedHvDlzw6QOlbcs" version="20.3.2" type="github">
  <diagram id="3228e29e-7158-1315-38df-8450db1d8a1d" name="Page-1">
    <mxGraphModel dx="759" dy="90" grid="0" gridSize="10" guides="1" tooltips="1" connect="1" arrows="1" fold="1" page="1" pageScale="1" pageWidth="800" pageHeight="620" background="#EFF1F3" math="0" shadow="0">
      <root>
        <mxCell id="0" />
        <mxCell id="1" parent="0" />
        <mxCell id="T-5VQnCJckOgUX1Wp16H-28" value="客户端" style="text;html=1;strokeColor=none;fillColor=none;align=center;verticalAlign=middle;whiteSpace=wrap;rounded=0;fontSize=22;fontColor=#4A919B;" parent="1" vertex="1">
          <mxGeometry x="148.08999999999997" y="765" width="179" height="20" as="geometry" />
        </mxCell>
        <mxCell id="aH1-eks404bDhsACtXEq-3" value="服务端" style="text;html=1;strokeColor=none;fillColor=none;align=center;verticalAlign=middle;whiteSpace=wrap;rounded=0;fontSize=22;fontColor=#4A919B;" parent="1" vertex="1">
          <mxGeometry x="471.27" y="765" width="179" height="20" as="geometry" />
        </mxCell>
        <mxCell id="aH1-eks404bDhsACtXEq-4" value="&lt;font color=&quot;#4a919b&quot; style=&quot;font-size: 30px&quot;&gt;TCP监听后程序崩了&lt;/font&gt;" style="text;html=1;strokeColor=none;fillColor=none;align=center;verticalAlign=middle;whiteSpace=wrap;rounded=0;" parent="1" vertex="1">
          <mxGeometry x="192.5" y="644" width="395" height="28" as="geometry" />
        </mxCell>
        <mxCell id="aH1-eks404bDhsACtXEq-7" value="" style="endArrow=none;html=1;strokeWidth=5;strokeColor=#595959;" parent="1" edge="1">
          <mxGeometry width="50" height="50" relative="1" as="geometry">
            <mxPoint x="249" y="1206" as="sourcePoint" />
            <mxPoint x="249" y="828" as="targetPoint" />
          </mxGeometry>
        </mxCell>
        <mxCell id="aH1-eks404bDhsACtXEq-10" value="" style="endArrow=classic;html=1;strokeWidth=5;fontSize=20;strokeColor=#4A919B;" parent="1" edge="1">
          <mxGeometry width="50" height="50" relative="1" as="geometry">
            <mxPoint x="269.5" y="860" as="sourcePoint" />
            <mxPoint x="517" y="860" as="targetPoint" />
          </mxGeometry>
        </mxCell>
        <mxCell id="aH1-eks404bDhsACtXEq-11" value="send( ) data" style="text;html=1;fillColor=none;align=center;verticalAlign=middle;whiteSpace=wrap;rounded=0;fontSize=20;fontColor=#4A919B;" parent="1" vertex="1">
          <mxGeometry x="308" y="834" width="146.5" height="21" as="geometry" />
        </mxCell>
        <mxCell id="aH1-eks404bDhsACtXEq-12" value="" style="endArrow=none;html=1;strokeWidth=5;startArrow=classic;startFill=1;endFill=0;fontColor=#4A919B;strokeColor=#4A919B;" parent="1" edge="1">
          <mxGeometry width="50" height="50" relative="1" as="geometry">
            <mxPoint x="264" y="919" as="sourcePoint" />
            <mxPoint x="522" y="919" as="targetPoint" />
          </mxGeometry>
        </mxCell>
        <mxCell id="aH1-eks404bDhsACtXEq-17" value="&lt;span style=&quot;font-family: &amp;quot;open sans&amp;quot; , &amp;quot;clear sans&amp;quot; , &amp;quot;helvetica neue&amp;quot; , &amp;quot;helvetica&amp;quot; , &amp;quot;arial&amp;quot; , sans-serif&quot;&gt;&lt;font style=&quot;font-size: 12px&quot;&gt;ESTABLISHED&lt;/font&gt;&lt;/span&gt;" style="rounded=1;whiteSpace=wrap;html=1;dashed=1;strokeWidth=3;strokeColor=none;fillColor=#4A919B;fontColor=#FFFFFF;" parent="1" vertex="1">
          <mxGeometry x="552.5" y="822" width="89.5" height="132" as="geometry" />
        </mxCell>
        <mxCell id="aH1-eks404bDhsACtXEq-22" value="ACK" style="text;html=1;strokeColor=none;fillColor=none;align=center;verticalAlign=middle;whiteSpace=wrap;rounded=0;fontSize=20;rotation=0;fontColor=#4A919B;" parent="1" vertex="1">
          <mxGeometry x="342" y="888" width="87" height="32" as="geometry" />
        </mxCell>
        <mxCell id="YXoqQ_mGJv7HDvLP6CB5-1" value="" style="endArrow=none;html=1;strokeWidth=5;strokeColor=#595959;" parent="1" edge="1">
          <mxGeometry width="50" height="50" relative="1" as="geometry">
            <mxPoint x="535" y="1208" as="sourcePoint" />
            <mxPoint x="534.5000000000001" y="828" as="targetPoint" />
          </mxGeometry>
        </mxCell>
        <mxCell id="CZwPZS3a3ZRwMsVz8uld-6" value="&lt;font color=&quot;#ffffff&quot;&gt;CLOSED&lt;/font&gt;" style="rounded=1;whiteSpace=wrap;html=1;strokeWidth=3;strokeColor=none;fillColor=#808080;" parent="1" vertex="1">
          <mxGeometry x="553.5" y="967" width="89" height="238" as="geometry" />
        </mxCell>
        <mxCell id="620c4s5pLBTuJ2dwkKwi-3" value="&lt;span style=&quot;font-family: &amp;#34;open sans&amp;#34; , &amp;#34;clear sans&amp;#34; , &amp;#34;helvetica neue&amp;#34; , &amp;#34;helvetica&amp;#34; , &amp;#34;arial&amp;#34; , sans-serif&quot;&gt;&lt;font style=&quot;font-size: 12px&quot;&gt;ESTABLISHED&lt;br&gt;&lt;/font&gt;&lt;/span&gt;" style="rounded=1;whiteSpace=wrap;html=1;dashed=1;strokeWidth=3;fillColor=#4A919B;strokeColor=none;fontColor=#FFFFFF;" parent="1" vertex="1">
          <mxGeometry x="148.09" y="828" width="89" height="245" as="geometry" />
        </mxCell>
        <mxCell id="RZoSx3gHirty8Vm16f_1-17" value="&lt;font color=&quot;#4a919b&quot; style=&quot;font-size: 20px&quot;&gt;1.程序崩溃&lt;/font&gt;" style="text;html=1;strokeColor=none;fillColor=none;align=center;verticalAlign=middle;whiteSpace=wrap;rounded=0;" parent="1" vertex="1">
          <mxGeometry x="634.39" y="996" width="122.73" height="33" as="geometry" />
        </mxCell>
        <mxCell id="RZoSx3gHirty8Vm16f_1-18" value="" style="endArrow=classic;html=1;strokeWidth=5;fontSize=20;fontColor=#4A919B;strokeColor=#4A919B;" parent="1" edge="1">
          <mxGeometry width="50" height="50" relative="1" as="geometry">
            <mxPoint x="271.5" y="1018" as="sourcePoint" />
            <mxPoint x="519" y="1018" as="targetPoint" />
          </mxGeometry>
        </mxCell>
        <mxCell id="RZoSx3gHirty8Vm16f_1-19" value="send() data" style="text;html=1;strokeColor=none;fillColor=none;align=center;verticalAlign=middle;whiteSpace=wrap;rounded=0;fontSize=20;fontColor=#4A919B;" parent="1" vertex="1">
          <mxGeometry x="310" y="992" width="146.5" height="21" as="geometry" />
        </mxCell>
        <mxCell id="RZoSx3gHirty8Vm16f_1-20" value="" style="endArrow=none;html=1;strokeWidth=5;startArrow=classic;startFill=1;endFill=0;fontColor=#4A919B;strokeColor=#F19C99;" parent="1" edge="1">
          <mxGeometry width="50" height="50" relative="1" as="geometry">
            <mxPoint x="266" y="1077" as="sourcePoint" />
            <mxPoint x="524" y="1077" as="targetPoint" />
          </mxGeometry>
        </mxCell>
        <mxCell id="RZoSx3gHirty8Vm16f_1-21" value="&lt;font color=&quot;#f19c99&quot;&gt;RST&lt;/font&gt;" style="text;html=1;strokeColor=none;fillColor=none;align=center;verticalAlign=middle;whiteSpace=wrap;rounded=0;fontSize=20;rotation=0;fontColor=#EA6B66;" parent="1" vertex="1">
          <mxGeometry x="344" y="1046" width="87" height="32" as="geometry" />
        </mxCell>
        <mxCell id="RZoSx3gHirty8Vm16f_1-22" value="&lt;font color=&quot;#ffffff&quot;&gt;CLOSED&lt;/font&gt;" style="rounded=1;whiteSpace=wrap;html=1;strokeWidth=3;strokeColor=none;fillColor=#808080;" parent="1" vertex="1">
          <mxGeometry x="146" y="1084" width="89" height="116" as="geometry" />
        </mxCell>
        <mxCell id="RZoSx3gHirty8Vm16f_1-23" value="&lt;font style=&quot;font-size: 20px&quot;&gt;&lt;font color=&quot;#4a919b&quot;&gt;2.收到RST&lt;br&gt;关闭连接&lt;/font&gt;&lt;br&gt;&lt;/font&gt;" style="text;html=1;strokeColor=none;fillColor=none;align=center;verticalAlign=middle;whiteSpace=wrap;rounded=0;" parent="1" vertex="1">
          <mxGeometry x="22" y="1067" width="119" height="33" as="geometry" />
        </mxCell>
        <mxCell id="nHxBERx6Sb37UA-5D_Ki-1" value="" style="shape=image;verticalLabelPosition=bottom;verticalAlign=top;imageAspect=0;aspect=fixed;image=data:image/svg+xml,PHN2ZyB4bWxuczp4bGluaz0iaHR0cDovL3d3dy53My5vcmcvMTk5OS94bGluayIgeG1sbnM9Imh0dHA6Ly93d3cudzMub3JnLzIwMDAvc3ZnIiBoZWlnaHQ9IjIwMCIgd2lkdGg9IjIwMCIgdmVyc2lvbj0iMS4xIiB2aWV3Qm94PSIwIDAgMTAyNCAxMDI0IiBjbGFzcz0iaWNvbiI+PGRlZnM+PHN0eWxlIHR5cGU9InRleHQvY3NzIj5AZm9udC1mYWNlIHsgZm9udC1mYW1pbHk6IGZlZWRiYWNrLWljb25mb250OyBzcmM6IHVybCgiLy9hdC5hbGljZG4uY29tL3QvZm9udF8xMDMxMTU4X3U2OXc4eWh4ZHUud29mZjI/dD0xNjMwMDMzNzU5OTQ0IikgZm9ybWF0KCJ3b2ZmMiIpLCB1cmwoIi8vYXQuYWxpY2RuLmNvbS90L2ZvbnRfMTAzMTE1OF91Njl3OHloeGR1LndvZmY/dD0xNjMwMDMzNzU5OTQ0IikgZm9ybWF0KCJ3b2ZmIiksIHVybCgiLy9hdC5hbGljZG4uY29tL3QvZm9udF8xMDMxMTU4X3U2OXc4eWh4ZHUudHRmP3Q9MTYzMDAzMzc1OTk0NCIpIGZvcm1hdCgidHJ1ZXR5cGUiKTsgfSYjeGE7PC9zdHlsZT48L2RlZnM+PHBhdGggZmlsbD0iIzRBOTE5QiIgZD0iTTg0Mi4zOTQ1OTUgNzk5LjczMzIzNyA2NDAuOTczMDc2IDc5OS43MzMyMzcgNjQwLjk3MzA3NiA5MTQuODI1NTA4bDU3LjU0OTAwNSAwYzE1LjkwMzg1MyAwIDI4Ljc3NDUwMyAxMi44NjkwOTkgMjguNzc0NTAzIDI4Ljc3MzMyNCAwIDE1LjkwMzIwMi0xMi44NzA2NDkgMjguNzcyMy0yOC43NzQ1MDMgMjguNzcyM0wzNTMuMjI4MDUgOTcyLjM3MTEzMmMtMTUuOTA0ODc3IDAtMjguNzc0NTAzLTEyLjg2OTA5OS0yOC43NzQ1MDMtMjguNzcyMyAwLTE1LjkwNDIyNSAxMi44Njk2MjYtMjguNzczMzI0IDI4Ljc3NDUwMy0yOC43NzMzMjRsNTcuNTQ5MDA1IDBMNDEwLjc3NzA1NSA3OTkuNzMzMjM3IDE4MC41ODEwMzQgNzk5LjczMzIzN2MtNjMuNTYyMTk5IDAtMTE1LjA5ODAxMS01MS41MzM3LTExNS4wOTgwMTEtMTE1LjA5MzI5NUw2NS40ODMwMjMgMTY2LjcyMDExNmMwLTYzLjU1OTU5NSA1MS41MzU4MTItMTE1LjA5MzI5NSAxMTUuMDk4MDExLTExNS4wOTMyOTVsNjYxLjgxMjUzNyAwYzYzLjU2MTE3NiAwIDExNS4wOTgwMTEgNTEuNTMzNyAxMTUuMDk4MDExIDExNS4wOTMyOTVsMCA1MTcuOTE5ODI2Qzk1Ny40OTE1ODIgNzQ4LjE5ODUxMyA5MDUuOTU1NzcgNzk5LjczMzIzNyA4NDIuMzk0NTk1IDc5OS43MzMyMzd6TTU4My40MjQwNzEgOTE0LjgyNTUwOCA1ODMuNDI0MDcxIDc5OS43MzMyMzcgNDY4LjMyNjA2IDc5OS43MzMyMzcgNDY4LjMyNjA2IDkxNC44MjU1MDggNTgzLjQyNDA3MSA5MTQuODI1NTA4ek04OTkuOTQyNTc3IDE2Ni43MjAxMTZjMC0zMS43Nzk3OTctMjUuNzY3OTA2LTU3LjU0NjY0Ny01Ny41NDc5ODItNTcuNTQ2NjQ3TDE4MC41ODEwMzQgMTA5LjE3MzQ2OGMtMzEuNzgxMDk5IDAtNTcuNTQ5MDA1IDI1Ljc2Njg1LTU3LjU0OTAwNSA1Ny41NDY2NDdsMCA0MDIuODI2NTMyTDg5OS45NDI1NzcgNTY5LjU0NjY0NyA4OTkuOTQyNTc3IDE2Ni43MjAxMTZ6TTg5OS45NDI1NzcgNjI3LjA5MzI5NSAxMjMuMDMzMDUyIDYyNy4wOTMyOTVsMCA1Ny41NDY2NDdjMCAzMS43Nzk3OTcgMjUuNzY3OTA2IDU3LjU0NTYyNCA1Ny41NDkwMDUgNTcuNTQ1NjI0bDY2MS44MTI1MzcgMGMzMS43ODEwOTkgMCA1Ny41NDc5ODItMjUuNzY2ODUgNTcuNTQ3OTgyLTU3LjU0NTYyNEw4OTkuOTQyNTc3IDYyNy4wOTMyOTV6Ii8+PC9zdmc+" vertex="1" parent="1">
          <mxGeometry x="196" y="687" width="76" height="76" as="geometry" />
        </mxCell>
        <mxCell id="nHxBERx6Sb37UA-5D_Ki-2" value="" style="shape=image;verticalLabelPosition=bottom;verticalAlign=top;imageAspect=0;aspect=fixed;image=data:image/svg+xml,PHN2ZyB4bWxuczp4bGluaz0iaHR0cDovL3d3dy53My5vcmcvMTk5OS94bGluayIgeG1sbnM9Imh0dHA6Ly93d3cudzMub3JnLzIwMDAvc3ZnIiBoZWlnaHQ9IjIwMCIgd2lkdGg9IjIwMCIgdmVyc2lvbj0iMS4xIiB2aWV3Qm94PSIwIDAgMTAyNCAxMDI0IiBjbGFzcz0iaWNvbiI+PGRlZnM+PHN0eWxlIHR5cGU9InRleHQvY3NzIj5AZm9udC1mYWNlIHsgZm9udC1mYW1pbHk6IGZlZWRiYWNrLWljb25mb250OyBzcmM6IHVybCgiLy9hdC5hbGljZG4uY29tL3QvZm9udF8xMDMxMTU4X3U2OXc4eWh4ZHUud29mZjI/dD0xNjMwMDMzNzU5OTQ0IikgZm9ybWF0KCJ3b2ZmMiIpLCB1cmwoIi8vYXQuYWxpY2RuLmNvbS90L2ZvbnRfMTAzMTE1OF91Njl3OHloeGR1LndvZmY/dD0xNjMwMDMzNzU5OTQ0IikgZm9ybWF0KCJ3b2ZmIiksIHVybCgiLy9hdC5hbGljZG4uY29tL3QvZm9udF8xMDMxMTU4X3U2OXc4eWh4ZHUudHRmP3Q9MTYzMDAzMzc1OTk0NCIpIGZvcm1hdCgidHJ1ZXR5cGUiKTsgfSYjeGE7PC9zdHlsZT48L2RlZnM+PHBhdGggZmlsbD0iIzRBOTE5QiIgZD0iTTAgNzI4djEzNmMwIDM1LjMgMjguNyA2NCA2NCA2NGg4OTZjMzUuMyAwIDY0LTI4LjcgNjQtNjRWNzI4YzAtNC40LTMuNi04LTgtOEg4Yy00LjQgMC04IDMuNi04IDh6IG03NzQgOTZjMCA0LjQtMy42IDgtOCA4SDQyNGMtNC40IDAtOC0zLjYtOC04di00OGMwLTQuNCAzLjYtOCA4LThoMzQyYzQuNCAwIDggMy42IDggOHY0OHogbTEyMiAwYzAgNC40LTMuNiA4LTggOGgtNDhjLTQuNCAwLTgtMy42LTgtOHYtNDhjMC00LjQgMy42LTggOC04aDQ4YzQuNCAwIDggMy42IDggOHY0OHpNMCA1MzZ2MTQ0YzAgNC40IDMuNiA4IDggOGgxMDA4YzQuNCAwIDgtMy42IDgtOFY1MzZjMC00LjQtMy42LTgtOC04SDhjLTQuNCAwLTggMy42LTggOHogbTc3NCA5NmMwIDQuNC0zLjYgOC04IDhINDI0Yy00LjQgMC04LTMuNi04LTh2LTQ4YzAtNC40IDMuNi04IDgtOGgzNDJjNC40IDAgOCAzLjYgOCA4djQ4eiBtMTIyIDBjMCA0LjQtMy42IDgtOCA4aC00OGMtNC40IDAtOC0zLjYtOC04di00OGMwLTQuNCAzLjYtOCA4LThoNDhjNC40IDAgOCAzLjYgOCA4djQ4ek0wIDM0NHYxNDRjMCA0LjQgMy42IDggOCA4aDEwMDhjNC40IDAgOC0zLjYgOC04VjM0NGMwLTQuNC0zLjYtOC04LThIOGMtNC40IDAtOCAzLjYtOCA4eiBtNzc0IDk2YzAgNC40LTMuNiA4LTggOEg0MjRjLTQuNCAwLTgtMy42LTgtOHYtNDhjMC00LjQgMy42LTggOC04aDM0MmM0LjQgMCA4IDMuNiA4IDh2NDh6IG0xMjIgMGMwIDQuNC0zLjYgOC04IDhoLTQ4Yy00LjQgMC04LTMuNi04LTh2LTQ4YzAtNC40IDMuNi04IDgtOGg0OGM0LjQgMCA4IDMuNiA4IDh2NDh6TTk2MCA5Nkg2NGMtMzUuMyAwLTY0IDI4LjctNjQgNjR2MTM2YzAgNC40IDMuNiA4IDggOGgxMDA4YzQuNCAwIDgtMy42IDgtOFYxNjBjMC0zNS4zLTI4LjctNjQtNjQtNjR6TTc3NCAyNDhjMCA0LjQtMy42IDgtOCA4SDQyNGMtNC40IDAtOC0zLjYtOC04di00OGMwLTQuNCAzLjYtOCA4LThoMzQyYzQuNCAwIDggMy42IDggOHY0OHogbTEyMiAwYzAgNC40LTMuNiA4LTggOGgtNDhjLTQuNCAwLTgtMy42LTgtOHYtNDhjMC00LjQgMy42LTggOC04aDQ4YzQuNCAwIDggMy42IDggOHY0OHoiLz48L3N2Zz4=;fontColor=#4A919B;" vertex="1" parent="1">
          <mxGeometry x="524.77" y="685" width="72" height="72" as="geometry" />
        </mxCell>
        <mxCell id="nHxBERx6Sb37UA-5D_Ki-3" value="" style="shape=image;verticalLabelPosition=bottom;verticalAlign=top;imageAspect=0;aspect=fixed;image=data:image/svg+xml,PHN2ZyB4bWxuczp4bGluaz0iaHR0cDovL3d3dy53My5vcmcvMTk5OS94bGluayIgeG1sbnM9Imh0dHA6Ly93d3cudzMub3JnLzIwMDAvc3ZnIiBoZWlnaHQ9IjIwMCIgd2lkdGg9IjIwMCIgdmVyc2lvbj0iMS4xIiB2aWV3Qm94PSIwIDAgMTAyNCAxMDI0IiBjbGFzcz0iaWNvbiI+PGRlZnM+PHN0eWxlIHR5cGU9InRleHQvY3NzIj5AZm9udC1mYWNlIHsgZm9udC1mYW1pbHk6IGZlZWRiYWNrLWljb25mb250OyBzcmM6IHVybCgiLy9hdC5hbGljZG4uY29tL3QvZm9udF8xMDMxMTU4X3U2OXc4eWh4ZHUud29mZjI/dD0xNjMwMDMzNzU5OTQ0IikgZm9ybWF0KCJ3b2ZmMiIpLCB1cmwoIi8vYXQuYWxpY2RuLmNvbS90L2ZvbnRfMTAzMTE1OF91Njl3OHloeGR1LndvZmY/dD0xNjMwMDMzNzU5OTQ0IikgZm9ybWF0KCJ3b2ZmIiksIHVybCgiLy9hdC5hbGljZG4uY29tL3QvZm9udF8xMDMxMTU4X3U2OXc4eWh4ZHUudHRmP3Q9MTYzMDAzMzc1OTk0NCIpIGZvcm1hdCgidHJ1ZXR5cGUiKTsgfSYjeGE7PC9zdHlsZT48L2RlZnM+PHBhdGggZmlsbD0iIzRBOTE5QiIgZD0iTTAgNzI4djEzNmMwIDM1LjMgMjguNyA2NCA2NCA2NGg4OTZjMzUuMyAwIDY0LTI4LjcgNjQtNjRWNzI4YzAtNC40LTMuNi04LTgtOEg4Yy00LjQgMC04IDMuNi04IDh6IG03NzQgOTZjMCA0LjQtMy42IDgtOCA4SDQyNGMtNC40IDAtOC0zLjYtOC04di00OGMwLTQuNCAzLjYtOCA4LThoMzQyYzQuNCAwIDggMy42IDggOHY0OHogbTEyMiAwYzAgNC40LTMuNiA4LTggOGgtNDhjLTQuNCAwLTgtMy42LTgtOHYtNDhjMC00LjQgMy42LTggOC04aDQ4YzQuNCAwIDggMy42IDggOHY0OHpNMCA1MzZ2MTQ0YzAgNC40IDMuNiA4IDggOGgxMDA4YzQuNCAwIDgtMy42IDgtOFY1MzZjMC00LjQtMy42LTgtOC04SDhjLTQuNCAwLTggMy42LTggOHogbTc3NCA5NmMwIDQuNC0zLjYgOC04IDhINDI0Yy00LjQgMC04LTMuNi04LTh2LTQ4YzAtNC40IDMuNi04IDgtOGgzNDJjNC40IDAgOCAzLjYgOCA4djQ4eiBtMTIyIDBjMCA0LjQtMy42IDgtOCA4aC00OGMtNC40IDAtOC0zLjYtOC04di00OGMwLTQuNCAzLjYtOCA4LThoNDhjNC40IDAgOCAzLjYgOCA4djQ4ek0wIDM0NHYxNDRjMCA0LjQgMy42IDggOCA4aDEwMDhjNC40IDAgOC0zLjYgOC04VjM0NGMwLTQuNC0zLjYtOC04LThIOGMtNC40IDAtOCAzLjYtOCA4eiBtNzc0IDk2YzAgNC40LTMuNiA4LTggOEg0MjRjLTQuNCAwLTgtMy42LTgtOHYtNDhjMC00LjQgMy42LTggOC04aDM0MmM0LjQgMCA4IDMuNiA4IDh2NDh6IG0xMjIgMGMwIDQuNC0zLjYgOC04IDhoLTQ4Yy00LjQgMC04LTMuNi04LTh2LTQ4YzAtNC40IDMuNi04IDgtOGg0OGM0LjQgMCA4IDMuNiA4IDh2NDh6TTk2MCA5Nkg2NGMtMzUuMyAwLTY0IDI4LjctNjQgNjR2MTM2YzAgNC40IDMuNiA4IDggOGgxMDA4YzQuNCAwIDgtMy42IDgtOFYxNjBjMC0zNS4zLTI4LjctNjQtNjQtNjR6TTc3NCAyNDhjMCA0LjQtMy42IDgtOCA4SDQyNGMtNC40IDAtOC0zLjYtOC04di00OGMwLTQuNCAzLjYtOCA4LThoMzQyYzQuNCAwIDggMy42IDggOHY0OHogbTEyMiAwYzAgNC40LTMuNiA4LTggOGgtNDhjLTQuNCAwLTgtMy42LTgtOHYtNDhjMC00LjQgMy42LTggOC04aDQ4YzQuNCAwIDggMy42IDggOHY0OHoiLz48L3N2Zz4=;fontColor=#4A919B;" vertex="1" parent="1">
          <mxGeometry x="680" y="911.9399999999999" width="77.12" height="77.12" as="geometry" />
        </mxCell>
        <mxCell id="nHxBERx6Sb37UA-5D_Ki-4" value="" style="shape=image;verticalLabelPosition=bottom;verticalAlign=top;imageAspect=0;aspect=fixed;image=data:image/svg+xml,PHN2ZyB4bWxuczp4bGluaz0iaHR0cDovL3d3dy53My5vcmcvMTk5OS94bGluayIgeG1sbnM9Imh0dHA6Ly93d3cudzMub3JnLzIwMDAvc3ZnIiBoZWlnaHQ9IjIwMCIgd2lkdGg9IjIwMCIgdmVyc2lvbj0iMS4xIiB2aWV3Qm94PSIwIDAgMTAyNCAxMDI0IiBjbGFzcz0iaWNvbiI+PGRlZnM+PHN0eWxlIHR5cGU9InRleHQvY3NzIj5AZm9udC1mYWNlIHsgZm9udC1mYW1pbHk6IGZlZWRiYWNrLWljb25mb250OyBzcmM6IHVybCgiLy9hdC5hbGljZG4uY29tL3QvZm9udF8xMDMxMTU4X3U2OXc4eWh4ZHUud29mZjI/dD0xNjMwMDMzNzU5OTQ0IikgZm9ybWF0KCJ3b2ZmMiIpLCB1cmwoIi8vYXQuYWxpY2RuLmNvbS90L2ZvbnRfMTAzMTE1OF91Njl3OHloeGR1LndvZmY/dD0xNjMwMDMzNzU5OTQ0IikgZm9ybWF0KCJ3b2ZmIiksIHVybCgiLy9hdC5hbGljZG4uY29tL3QvZm9udF8xMDMxMTU4X3U2OXc4eWh4ZHUudHRmP3Q9MTYzMDAzMzc1OTk0NCIpIGZvcm1hdCgidHJ1ZXR5cGUiKTsgfSYjeGE7PC9zdHlsZT48L2RlZnM+PHBhdGggZmlsbD0iI0VENTU2NCIgZD0iTTgzMS45ODkzNzUgMjEuMzM1OTU4aC0xNzAuNjUzNjY3Yy0xMS43ODE5NzcgMC0yMS4zNDM5NTggOS41NjE5ODEtMjEuMzQzOTU4IDIxLjM0Mzk1OXY5MTcuMzEwMjA4YzAgMTEuNTMxOTc3IDQuNzgxOTkxIDMzLjI0OTkzNSAzNi43ODE5MjggNDkuMjQ5OTA0IDE5LjAyOTk2MyA5LjQ5OTk4MSA0My44NDE5MTQgMTQuNzQ5OTcxIDY5Ljg3Mzg2NCAxNC43NDk5NzEgMjYuMDYxOTQ5IDAgNTAuODc1OTAxLTUuMjQ5OTkgNjkuOTA1ODYzLTE0Ljc0OTk3MSAzMS45OTk5MzgtMTUuOTk5OTY5IDM2Ljc4MTkyOC0zNy43MTc5MjYgMzYuNzgxOTI4LTQ5LjI0OTkwNFY0Mi42Nzk5MTdjLTAuMDAyLTExLjc3OTk3Ny05LjU2Mzk4MS0yMS4zNDM5NTgtMjEuMzQ1OTU4LTIxLjM0Mzk1OXpNNTk3LjMzNzgzMyAyMS4zMzU5NThoLTE3MC42ODM2NjZjLTExLjc3OTk3NyAwLTIxLjMxMTk1OCA5LjU2MTk4MS0yMS4zMTE5NTkgMjEuMzQzOTU5djkxNy4zMTAyMDhjMCAxMS41MzE5NzcgNC43ODE5OTEgMzMuMjQ5OTM1IDM2Ljc3OTkyOCA0OS4yNDk5MDQgMTkuMDMxOTYzIDkuNDk5OTgxIDQzLjg0MTkxNCAxNC43NDk5NzEgNjkuODczODY0IDE0Ljc0OTk3MSAyNi4wMjk5NDkgMCA1MC44NzM5MDEtNS4yNDk5OSA2OS44NzM4NjQtMTQuNzQ5OTcxIDMxLjk5OTkzOC0xNS45OTk5NjkgMzYuNzgxOTI4LTM3LjcxNzkyNiAzNi43ODE5MjgtNDkuMjQ5OTA0VjQyLjY3OTkxN2MtMC4wMDItMTEuNzc5OTc3LTkuNTMxOTgxLTIxLjM0Mzk1OC0yMS4zMTM5NTktMjEuMzQzOTU5ek0zNjIuNjU0MjkyIDIxLjMzNTk1OEgxOTIuMDAyNjI1Yy0xMS43ODE5NzcgMC0yMS4zNDM5NTggOS41NjE5ODEtMjEuMzQzOTU4IDIxLjM0Mzk1OXY5MTcuMzEwMjA4YzAgMTEuNTMxOTc3IDQuNzgxOTkxIDMzLjI0OTkzNSAzNi44MTE5MjggNDkuMjQ5OTA0IDE4Ljk5OTk2MyA5LjQ5OTk4MSA0My44MTE5MTQgMTQuNzQ5OTcxIDY5Ljg3Mzg2MyAxNC43NDk5NzEgMjYuMDMxOTQ5IDAgNTAuODQxOTAxLTUuMjQ5OTkgNjkuODczODY0LTE0Ljc0OTk3MSAzMS45OTk5MzgtMTUuOTk5OTY5IDM2Ljc3OTkyOC0zNy43MTc5MjYgMzYuNzc5OTI4LTQ5LjI0OTkwNFY0Mi42Nzk5MTdjMC0xMS43Nzk5NzctOS41NjE5ODEtMjEuMzQzOTU4LTIxLjM0Mzk1OC0yMS4zNDM5NTl6Ii8+PHBhdGggb3BhY2l0eT0iLjIiIGZpbGw9IiNGRkZGRkYiIGQ9Ik04MzEuOTg5Mzc1IDIxLjMzNTk1OGgtMjEuMzQzOTU4YzExLjc4MTk3NyAwIDIxLjM0Mzk1OCA5LjU2MTk4MSAyMS4zNDM5NTggMjEuMzQzOTU5djkxNy4zMTAyMDhjMCAxMS41MzE5NzctNC43ODE5OTEgMzMuMjQ5OTM1LTM2Ljc4MTkyOCA0OS4yNDk5MDQtMTYuNDA1OTY4IDguMTg3OTg0LTM3LjEyMzkyNyAxMy4yMTc5NzQtNTkuMjE3ODg0IDE0LjQzNzk3MiAzLjUzMTk5MyAwLjE4OCA3LjA5Mzk4NiAwLjMxMTk5OSAxMC42NTU5NzkgMC4zMTE5OTkgMjYuMDYxOTQ5IDAgNTAuODc1OTAxLTUuMjQ5OTkgNjkuOTA1ODYzLTE0Ljc0OTk3MSAzMS45OTk5MzgtMTUuOTk5OTY5IDM2Ljc4MTkyOC0zNy43MTc5MjYgMzYuNzgxOTI4LTQ5LjI0OTkwNFY0Mi42Nzk5MTdjMC0xMS43Nzk5NzctOS41NjE5ODEtMjEuMzQzOTU4LTIxLjM0Mzk1OC0yMS4zNDM5NTl6TTU5Ny4zMzc4MzMgMjEuMzM1OTU4aC0yMS4zNDM5NThjMTEuNzgxOTc3IDAgMjEuMzQzOTU4IDkuNTYxOTgxIDIxLjM0Mzk1OCAyMS4zNDM5NTl2OTE3LjMxMDIwOGMwIDExLjUzMTk3Ny00Ljc4MTk5MSAzMy4yNDk5MzUtMzYuNzgxOTI4IDQ5LjI0OTkwNC0xNi40MDU5NjggOC4xODc5ODQtMzcuMTIzOTI3IDEzLjIxNzk3NC01OS4yMTU4ODQgMTQuNDM3OTcyIDMuNTMxOTkzIDAuMTg4IDcuMDYxOTg2IDAuMzExOTk5IDEwLjY1NTk3OSAwLjMxMTk5OSAyNi4wMjk5NDkgMCA1MC44NzM5MDEtNS4yNDk5OSA2OS44NzM4NjQtMTQuNzQ5OTcxIDMxLjk5OTkzOC0xNS45OTk5NjkgMzYuNzgxOTI4LTM3LjcxNzkyNiAzNi43ODE5MjgtNDkuMjQ5OTA0VjQyLjY3OTkxN2MtMC4wMDItMTEuNzc5OTc3LTkuNTMxOTgxLTIxLjM0Mzk1OC0yMS4zMTM5NTktMjEuMzQzOTU5ek0zNjIuNjU0MjkyIDIxLjMzNTk1OGgtMjEuMzExOTU5YzExLjc4MTk3NyAwIDIxLjMxMTk1OCA5LjU2MTk4MSAyMS4zMTE5NTkgMjEuMzQzOTU5djkxNy4zMTAyMDhjMCAxMS41MzE5NzctNC43Nzk5OTEgMzMuMjQ5OTM1LTM2Ljc3OTkyOCA0OS4yNDk5MDQtMTYuNDA1OTY4IDguMTg3OTg0LTM3LjEyMzkyNyAxMy4yMTc5NzQtNTkuMjE3ODg1IDE0LjQzNzk3MiAzLjUzMTk5MyAwLjE4OCA3LjA5Mzk4NiAwLjMxMTk5OSAxMC42ODc5NzkgMC4zMTE5OTkgMjYuMDMxOTQ5IDAgNTAuODQxOTAxLTUuMjQ5OTkgNjkuODczODY0LTE0Ljc0OTk3MSAzMS45OTk5MzgtMTUuOTk5OTY5IDM2Ljc3OTkyOC0zNy43MTc5MjYgMzYuNzc5OTI4LTQ5LjI0OTkwNFY0Mi42Nzk5MTdjMC0xMS43Nzk5NzctOS41NjE5ODEtMjEuMzQzOTU4LTIxLjM0Mzk1OC0yMS4zNDM5NTl6Ii8+PHBhdGggZmlsbD0iI0RBNDQ1MyIgZD0iTTgxNi41NTE0MDUgOS44MzU5ODFDNzk3LjUxOTQ0MiAzLjQ5MTk5MyA3NzIuNzA3NDkxIDAuMDA4IDc0Ni42NDU1NDIgMC4wMDhjLTI2LjAzMTk0OSAwLTUwLjg0MzkwMSAzLjQ4Mzk5My02OS44NzM4NjQgOS44Mjc5ODEtMjMuNzE3OTU0IDcuOTA1OTg1LTM2Ljc4MTkyOCAxOS41Nzc5NjItMzYuNzgxOTI4IDMyLjg0MzkzNnMxMy4wNjE5NzQgMjQuOTIxOTUxIDM2Ljc4MTkyOCAzMi44Mjc5MzZjMTkuMDI5OTYzIDYuMzQxOTg4IDQzLjg0MTkxNCA5LjgyNzk4MSA2OS44NzM4NjQgOS44Mjc5OCAyNi4wNjE5NDkgMCA1MC44NzU5MDEtMy40ODM5OTMgNjkuOTA1ODYzLTkuODI3OTggMjMuNzE3OTU0LTcuOTA1OTg1IDM2Ljc4MTkyOC0xOS41NjE5NjIgMzYuNzgxOTI4LTMyLjgyNzkzNnMtMTMuMDYxOTc0LTI0LjkzNTk1MS0zNi43ODE5MjgtMzIuODQzOTM2ek01ODEuODY5ODY0IDkuODM1OTgxYy0xOC45OTk5NjMtNi4zNDM5ODgtNDMuODQzOTE0LTkuODI3OTgxLTY5Ljg3Mzg2NC05LjgyNzk4MS0yNi4wMzE5NDkgMC01MC44NDE5MDEgMy40ODM5OTMtNjkuODczODY0IDkuODI3OTgxLTIzLjcxNzk1NCA3LjkwNTk4NS0zNi43Nzk5MjggMTkuNTc3OTYyLTM2Ljc3OTkyOCAzMi44NDM5MzZzMTMuMDYxOTc0IDI0LjkyMTk1MSAzNi43Nzk5MjggMzIuODI3OTM2YzE5LjAzMTk2MyA2LjM0MTk4OCA0My44NDE5MTQgOS44Mjc5ODEgNjkuODczODY0IDkuODI3OTggMjYuMDI5OTQ5IDAgNTAuODczOTAxLTMuNDgzOTkzIDY5Ljg3Mzg2NC05LjgyNzk4IDIzLjcxNzk1NC03LjkwNTk4NSAzNi43ODE5MjgtMTkuNTYxOTYyIDM2Ljc4MTkyOC0zMi44Mjc5MzZzLTEzLjA2Mzk3NC0yNC45MzU5NTEtMzYuNzgxOTI4LTMyLjg0MzkzNnpNMzQ3LjIxODMyMiA5LjgzNTk4MUMzMjguMTg2MzU5IDMuNDkxOTkzIDMwMy4zNzY0MDcgMC4wMDggMjc3LjM0NDQ1OCAwLjAwOGMtMjYuMDYxOTQ5IDAtNTAuODczOTAxIDMuNDgzOTkzLTY5Ljg3Mzg2MyA5LjgyNzk4MS0yMy43MTc5NTQgNy45MDc5ODUtMzYuODExOTI4IDE5LjU3OTk2Mi0zNi44MTE5MjggMzIuODQzOTM2czEzLjA5Mzk3NCAyNC45MjE5NTEgMzYuODExOTI4IDMyLjgyNzkzNmMxOC45OTk5NjMgNi4zNDE5ODggNDMuODExOTE0IDkuODI3OTgxIDY5Ljg3Mzg2MyA5LjgyNzk4IDI2LjAzMTk0OSAwIDUwLjg0MTkwMS0zLjQ4Mzk5MyA2OS44NzM4NjQtOS44Mjc5OCAyMy43MTc5NTQtNy45MDU5ODUgMzYuNzc5OTI4LTE5LjU2MTk2MiAzNi43Nzk5MjgtMzIuODI3OTM2cy0xMy4wNjE5NzQtMjQuOTM1OTUxLTM2Ljc3OTkyOC0zMi44NDM5MzZ6Ii8+PHBhdGggZmlsbD0iIzQzNEE1NCIgZD0iTTg2My44OTMzMTMgMzg2LjgxNTI0NWEyMS4wNDk5NTkgMjEuMDQ5OTU5IDAgMCAwLTEwLjU1OTk4LTIuNzk1OTk1djQ3LjQwNTkwN2M0LjE1NTk5MiAzLjU2MTk5MyA3LjQ5Nzk4NSA3LjE4Nzk4NiA4LjcxNTk4MyA5LjY4NTk4MS0yLjQ5OTk5NSAyLjQ4Mzk5NS0xMi4zNzM5NzYgOS45MDU5ODEtNDUuNDAzOTExIDE2LjQzNzk2OC0zOS41MzE5MjMgNy44Mjc5ODUtOTguOTY3ODA3IDExLjc4MTk3Ny0xNzYuNjUzNjU1IDExLjc4MTk3Ny0xMS43Nzk5NzcgMC0yMS4zNDE5NTggOS41NjE5ODEtMjEuMzQxOTU4IDIxLjM0Mzk1OVM2MjguMjExNzczIDUxMS45OTkgNjM5Ljk5MTc1IDUxMS45OTljODYuMjc5ODMxIDAgMTUxLjU1OTcwNC00Ljg3NTk5IDE5My45MzU2MjEtMTQuNDk5OTcyIDI2LjM3Mzk0OC01Ljk4Mzk4OCA2Mi4zMDk4NzgtMTcuMjMzOTY2IDY5Ljg3Mzg2NC00NS43MTc5MSA5LjI3OTk4Mi0zNC44NDE5MzItMzEuNTkzOTM4LTYwLjIzMTg4Mi0zOS45MDc5MjItNjQuOTY1ODczek04NjMuODkzMzEzIDYwMC4xMjI4MjhhMjEuMTM5OTU5IDIxLjEzOTk1OSAwIDAgMC0xMC41NTk5OC0yLjc0OTk5NXY0Ny4zNzU5MDhjNC4xNTU5OTIgMy41NjE5OTMgNy40OTc5ODUgNy4xODc5ODYgOC43MTU5ODMgOS42ODc5ODEtMi40OTk5OTUgMi40OTk5OTUtMTIuMzczOTc2IDkuOTMzOTgxLTQ1LjQwMzkxMSAxNi40MzM5NjgtMzkuNTMxOTIzIDcuODExOTg1LTk4Ljk2NzgwNyAxMS44MTE5NzctMTc2LjY1MzY1NSAxMS44MTE5NzctMTEuNzc5OTc3IDAtMjEuMzQxOTU4IDkuNTMxOTgxLTIxLjM0MTk1OCAyMS4zMTE5NThzOS41NjE5ODEgMjEuMzExOTU4IDIxLjM0MTk1OCAyMS4zMTE5NThjODYuMjc5ODMxIDAgMTUxLjU1OTcwNC00Ljg3NTk5IDE5My45MzU2MjEtMTQuNDk5OTcxIDI2LjM3Mzk0OC01Ljk2Nzk4OCA2Mi4zMDk4NzgtMTcuMjE3OTY2IDY5Ljg3Mzg2NC00NS42ODc5MTEgOS4yNzk5ODItMzQuODY5OTMyLTMxLjU5MzkzOC02MC4yNDM4ODItMzkuOTA3OTIyLTY0Ljk5NTg3M3pNMzgzLjk5ODI1IDQ2OS4zMjkwODNjLTc3LjY4NTg0OCAwLTEzNy4xMjE3MzItMy45NTM5OTItMTc2LjY1MzY1NS0xMS43ODE5NzctMzMuMDI5OTM1LTYuNTMxOTg3LTQyLjkwNTkxNi0xMy45NTM5NzMtNDUuNDA1OTExLTE2LjQzNzk2OCAxLjIxNzk5OC0yLjQ5OTk5NSA0LjU2MTk5MS02LjEyMzk4OCA4LjcxNzk4My05LjY4NTk4MXYtNDcuNDA1OTA3Yy0zLjU5Mzk5MyAwLTcuMjE3OTg2IDAuODg5OTk4LTEwLjU2MTk4IDIuNzk1OTk1LTguMjgxOTg0IDQuNzMzOTkxLTQ5LjE1NTkwNCAzMC4xMjM5NDEtMzkuOTA1OTIyIDY0Ljk2NTg3MyA3LjU2MTk4NSAyOC40ODM5NDQgNDMuNDk5OTE1IDM5LjczMzkyMiA2OS44NzM4NjQgNDUuNzE3OTEgNDIuNDA1OTE3IDkuNjIzOTgxIDEwNy42NTM3OSAxNC40OTk5NzIgMTkzLjkzMzYyMSAxNC40OTk5NzIgMTEuNzgxOTc3IDAgMjEuMzQzOTU4LTkuNTQ1OTgxIDIxLjM0Mzk1OC0yMS4zMjc5NThzLTkuNTU5OTgxLTIxLjMzOTk1OC0yMS4zNDE5NTgtMjEuMzM5OTU5ek0zODMuOTk4MjUgNjgyLjY4MjY2N2MtNzcuNjg1ODQ4IDAtMTM3LjEyMTczMi0zLjk5OTk5Mi0xNzYuNjUzNjU1LTExLjgxMTk3Ny0zMy4wMjk5MzUtNi40OTk5ODctNDIuOTA1OTE2LTEzLjkzMzk3My00NS40MDU5MTEtMTYuNDMzOTY4IDEuMjE3OTk4LTIuNDk5OTk1IDQuNTYxOTkxLTYuMTIzOTg4IDguNzE3OTgzLTkuNjg3OTgxdi00Ny40MDU5MDhjLTMuNTkzOTkzIDAtNy4yMTc5ODYgMC45MDU5OTgtMTAuNTYxOTggMi43ODE5OTUtOC4yODE5ODQgNC43NDk5OTEtNDkuMTU1OTA0IDMwLjEyMzk0MS0zOS45MDU5MjIgNjQuOTk1ODczIDcuNTYxOTg1IDI4LjQ2Nzk0NCA0My40OTk5MTUgMzkuNzE3OTIyIDY5Ljg3Mzg2NCA0NS42ODc5MTEgNDIuNDA1OTE3IDkuNjIzOTgxIDEwNy42NTM3OSAxNC40OTk5NzIgMTkzLjkzMzYyMSAxNC40OTk5NzEgMTEuNzgxOTc3IDAgMjEuMzQzOTU4LTkuNTMxOTgxIDIxLjM0Mzk1OC0yMS4zMTE5NThzLTkuNTU5OTgxLTIxLjMxMzk1OC0yMS4zNDE5NTgtMjEuMzEzOTU4eiIvPjxwYXRoIGZpbGw9IiM0MzRBNTQiIGQ9Ik01OTcuMzM3ODMzIDM0MS4zMzEzMzNoLTE3MC42ODM2NjZjLTM1LjI3OTkzMSAwLTYzLjk5OTg3NSAyOC43MTc5NDQtNjMuOTk5ODc1IDYzLjk5OTg3NXYzNDEuMzUxMzM0YzAgMzUuMjQ5OTMxIDI4LjcxNzk0NCA2My45OTk4NzUgNjMuOTk5ODc1IDYzLjk5OTg3NWgxNzAuNjgzNjY2YzM1LjI4MTkzMSAwIDYzLjk5Nzg3NS0yOC43NDk5NDQgNjMuOTk3ODc1LTYzLjk5OTg3NVY0MDUuMzMxMjA4YzAtMzUuMjgxOTMxLTI4LjcxNTk0NC02My45OTk4NzUtNjMuOTk3ODc1LTYzLjk5OTg3NXoiLz48cGF0aCBmaWxsPSIjNjU2RDc4IiBkPSJNNTk3LjMzNzgzMyAzMjAuMDAzMzc1aC0xNzAuNjgzNjY2Yy0zNS4yNzk5MzEgMC02My45OTk4NzUgMjguNzAxOTQ0LTYzLjk5OTg3NSA2My45OTk4NzV2MzQxLjMwNTMzM2MwIDM1LjMxMTkzMSAyOC43MTc5NDQgNjMuOTk5ODc1IDYzLjk5OTg3NSA2My45OTk4NzVoMTcwLjY4MzY2NmMzNS4yODE5MzEgMCA2My45OTc4NzUtMjguNjg3OTQ0IDYzLjk5Nzg3NS02My45OTk4NzVWMzg0LjAwMTI1YzAtMzUuMjk1OTMxLTI4LjcxNTk0NC02My45OTc4NzUtNjMuOTk3ODc1LTYzLjk5Nzg3NXoiLz48cGF0aCBmaWxsPSIjRTZFOUVEIiBkPSJNNDY5LjM0MDA4MyA1NzUuOTk4ODc1YzAgMTEuNzgxOTc3LTkuNTYxOTgxIDIxLjMxMTk1OC0yMS4zNDM5NTggMjEuMzExOTU4UzQyNi42NTIxNjcgNTg3Ljc3ODg1MiA0MjYuNjUyMTY3IDU3NS45OTg4NzVzOS41NjE5ODEtMjEuMzExOTU4IDIxLjM0Mzk1OC0yMS4zMTE5NThTNDY5LjM0MDA4MyA1NjQuMjE2ODk4IDQ2OS4zNDAwODMgNTc1Ljk5ODg3NXpNNTMzLjMzNzk1OCA1NzUuOTk4ODc1YzAgMTEuNzgxOTc3LTkuNTYxOTgxIDIxLjMxMTk1OC0yMS4zNDE5NTggMjEuMzExOTU4LTExLjc4MTk3NyAwLTIxLjM0Mzk1OC05LjUzMTk4MS0yMS4zNDM5NTgtMjEuMzExOTU4czkuNTYxOTgxLTIxLjMxMTk1OCAyMS4zNDM5NTgtMjEuMzExOTU4YzExLjc3OTk3NyAwIDIxLjM0MTk1OCA5LjUyOTk4MSAyMS4zNDE5NTggMjEuMzExOTU4ek01OTcuMzM3ODMzIDU3NS45OTg4NzVjMCAxMS43ODE5NzctOS41NjE5ODEgMjEuMzExOTU4LTIxLjM0Mzk1OCAyMS4zMTE5NThTNTU0LjY0OTkxNyA1ODcuNzc4ODUyIDU1NC42NDk5MTcgNTc1Ljk5ODg3NXM5LjU2MTk4MS0yMS4zMTE5NTggMjEuMzQzOTU4LTIxLjMxMTk1OCAyMS4zNDM5NTggOS41Mjk5ODEgMjEuMzQzOTU4IDIxLjMxMTk1OHpNNDY5LjM0MDA4MyA2MzkuOTk4NzVjMCAxMS43ODE5NzctOS41NjE5ODEgMjEuMzExOTU4LTIxLjM0Mzk1OCAyMS4zMTE5NThTNDI2LjY1MjE2NyA2NTEuNzc4NzI3IDQyNi42NTIxNjcgNjM5Ljk5ODc1czkuNTYxOTgxLTIxLjMxMTk1OCAyMS4zNDM5NTgtMjEuMzExOTU4UzQ2OS4zNDAwODMgNjI4LjIxNjc3MyA0NjkuMzQwMDgzIDYzOS45OTg3NXpNNTMzLjMzNzk1OCA2MzkuOTk4NzVjMCAxMS43ODE5NzctOS41NjE5ODEgMjEuMzExOTU4LTIxLjM0MTk1OCAyMS4zMTE5NTgtMTEuNzgxOTc3IDAtMjEuMzQzOTU4LTkuNTMxOTgxLTIxLjM0Mzk1OC0yMS4zMTE5NThzOS41NjE5ODEtMjEuMzExOTU4IDIxLjM0Mzk1OC0yMS4zMTE5NThjMTEuNzc5OTc3IDAgMjEuMzQxOTU4IDkuNTI5OTgxIDIxLjM0MTk1OCAyMS4zMTE5NTh6TTU5Ny4zMzc4MzMgNjM5Ljk5ODc1YzAgMTEuNzgxOTc3LTkuNTYxOTgxIDIxLjMxMTk1OC0yMS4zNDM5NTggMjEuMzExOTU4UzU1NC42NDk5MTcgNjUxLjc3ODcyNyA1NTQuNjQ5OTE3IDYzOS45OTg3NXM5LjU2MTk4MS0yMS4zMTE5NTggMjEuMzQzOTU4LTIxLjMxMTk1OCAyMS4zNDM5NTggOS41Mjk5ODEgMjEuMzQzOTU4IDIxLjMxMTk1OHoiLz48cGF0aCBmaWxsPSIjQTBENDY4IiBkPSJNNDA1LjM0MjIwOCAzODQuMDAxMjVoMjEzLjMwNzU4NFY1MTEuOTk5SDQwNS4zNDIyMDh6Ii8+PHBhdGggZmlsbD0iI0U2RTlFRCIgZD0iTTQ2OS4zNDAwODMgNzAzLjk5NDYyNWMwIDExLjc4MTk3Ny05LjU2MTk4MSAyMS4zMTE5NTgtMjEuMzQzOTU4IDIxLjMxMTk1OHMtMjEuMzQzOTU4LTkuNTMxOTgxLTIxLjM0Mzk1OC0yMS4zMTE5NTggOS41NjE5ODEtMjEuMzExOTU4IDIxLjM0Mzk1OC0yMS4zMTE5NTggMjEuMzQzOTU4IDkuNTI5OTgxIDIxLjM0Mzk1OCAyMS4zMTE5NTh6TTUzMy4zMzc5NTggNzAzLjk5NDYyNWMwIDExLjc4MTk3Ny05LjU2MTk4MSAyMS4zMTE5NTgtMjEuMzQxOTU4IDIxLjMxMTk1OC0xMS43ODE5NzcgMC0yMS4zNDM5NTgtOS41MzE5ODEtMjEuMzQzOTU4LTIxLjMxMTk1OHM5LjU2MTk4MS0yMS4zMTE5NTggMjEuMzQzOTU4LTIxLjMxMTk1OGMxMS43Nzk5NzcgMCAyMS4zNDE5NTggOS41Mjk5ODEgMjEuMzQxOTU4IDIxLjMxMTk1OHpNNTk3LjMzNzgzMyA3MDMuOTk0NjI1YzAgMTEuNzgxOTc3LTkuNTYxOTgxIDIxLjMxMTk1OC0yMS4zNDM5NTggMjEuMzExOTU4cy0yMS4zNDM5NTgtOS41MzE5ODEtMjEuMzQzOTU4LTIxLjMxMTk1OCA5LjU2MTk4MS0yMS4zMTE5NTggMjEuMzQzOTU4LTIxLjMxMTk1OCAyMS4zNDM5NTggOS41Mjk5ODEgMjEuMzQzOTU4IDIxLjMxMTk1OHoiLz48L3N2Zz4=;fontColor=#4A919B;fillColor=#4A919B;" vertex="1" parent="1">
          <mxGeometry x="655" y="935" width="57" height="57" as="geometry" />
        </mxCell>
      </root>
    </mxGraphModel>
  </diagram>
</mxfile>
